<svg width="243" height="99" viewBox="0 0 243 99" fill="none" xmlns="http://www.w3.org/2000/svg">
<g filter="url(#filter0_d_2_14)">
<path d="M89.6361 76V65.8182H93.4543C94.2365 65.8182 94.8927 65.9541 95.423 66.2259C95.9566 66.4976 96.3593 66.8788 96.6311 67.3693C96.9062 67.8565 97.0438 68.425 97.0438 69.0746C97.0438 69.7275 96.9046 70.2943 96.6262 70.7749C96.3511 71.2521 95.945 71.6217 95.4081 71.8835C94.8712 72.142 94.2116 72.2713 93.4294 72.2713H90.71V70.7401H93.1808C93.6382 70.7401 94.0128 70.6771 94.3044 70.5511C94.5961 70.4219 94.8115 70.2346 94.9507 69.9893C95.0932 69.7408 95.1645 69.4358 95.1645 69.0746C95.1645 68.7133 95.0932 68.4051 94.9507 68.1499C94.8082 67.8913 94.5911 67.6958 94.2994 67.5632C94.0078 67.4273 93.6316 67.3594 93.1709 67.3594H91.4806V76H89.6361ZM94.896 71.3864L97.4166 76H95.3584L92.8825 71.3864H94.896ZM98.7416 76V65.8182H105.364V67.3643H100.586V70.1286H105.021V71.6747H100.586V74.4538H105.403V76H98.7416ZM108.553 76H106.584L110.169 65.8182H112.446L116.035 76H114.066L111.347 67.9062H111.267L108.553 76ZM108.618 72.0078H113.987V73.4893H108.618V72.0078ZM117.376 76V65.8182H119.221V74.4538H123.705V76H117.376ZM123.56 67.3643V65.8182H131.683V67.3643H128.536V76H126.707V67.3643H123.56ZM132.553 65.8182H134.636L137.127 70.3224H137.227L139.717 65.8182H141.801L138.097 72.2017V76H136.257V72.2017L132.553 65.8182ZM153.4 69.0696C153.318 68.8011 153.203 68.5608 153.057 68.3487C152.915 68.1333 152.743 67.9493 152.54 67.7969C152.342 67.6444 152.113 67.5301 151.854 67.4538C151.596 67.3743 151.314 67.3345 151.009 67.3345C150.462 67.3345 149.975 67.4721 149.547 67.7472C149.12 68.0223 148.784 68.4266 148.538 68.9602C148.296 69.4905 148.175 70.1368 148.175 70.8991C148.175 71.6681 148.296 72.3194 148.538 72.853C148.78 73.3866 149.117 73.7926 149.547 74.071C149.978 74.3461 150.479 74.4837 151.049 74.4837C151.566 74.4837 152.013 74.3842 152.391 74.1854C152.772 73.9865 153.066 73.7048 153.271 73.3402C153.477 72.9723 153.579 72.5414 153.579 72.0476L153.997 72.1122H151.233V70.6705H155.364V71.8935C155.364 72.7652 155.179 73.5192 154.807 74.1555C154.436 74.7919 153.926 75.2824 153.276 75.6271C152.627 75.9685 151.881 76.1392 151.039 76.1392C150.101 76.1392 149.277 75.9287 148.568 75.5078C147.862 75.0836 147.31 74.482 146.913 73.7031C146.518 72.9209 146.321 71.9929 146.321 70.919C146.321 70.0971 146.437 69.3629 146.669 68.7166C146.904 68.0703 147.232 67.5218 147.653 67.071C148.074 66.617 148.568 66.2723 149.135 66.0369C149.702 65.7983 150.318 65.679 150.984 65.679C151.548 65.679 152.073 65.7618 152.56 65.9276C153.047 66.09 153.48 66.322 153.858 66.6236C154.239 66.9252 154.552 67.2831 154.797 67.6974C155.043 68.1117 155.204 68.5691 155.28 69.0696H153.4ZM157.148 76V65.8182H160.966C161.748 65.8182 162.404 65.9541 162.935 66.2259C163.468 66.4976 163.871 66.8788 164.143 67.3693C164.418 67.8565 164.555 68.425 164.555 69.0746C164.555 69.7275 164.416 70.2943 164.138 70.7749C163.863 71.2521 163.457 71.6217 162.92 71.8835C162.383 72.142 161.723 72.2713 160.941 72.2713H158.222V70.7401H160.693C161.15 70.7401 161.524 70.6771 161.816 70.5511C162.108 70.4219 162.323 70.2346 162.462 69.9893C162.605 69.7408 162.676 69.4358 162.676 69.0746C162.676 68.7133 162.605 68.4051 162.462 68.1499C162.32 67.8913 162.103 67.6958 161.811 67.5632C161.52 67.4273 161.143 67.3594 160.683 67.3594H158.992V76H157.148ZM162.408 71.3864L164.928 76H162.87L160.394 71.3864H162.408ZM175.351 70.9091C175.351 72.0062 175.146 72.9458 174.735 73.728C174.327 74.5069 173.77 75.1035 173.064 75.5178C172.362 75.9321 171.565 76.1392 170.673 76.1392C169.781 76.1392 168.983 75.9321 168.277 75.5178C167.574 75.1001 167.017 74.5019 166.606 73.723C166.199 72.9408 165.995 72.0028 165.995 70.9091C165.995 69.812 166.199 68.8741 166.606 68.0952C167.017 67.313 167.574 66.7147 168.277 66.3004C168.983 65.8861 169.781 65.679 170.673 65.679C171.565 65.679 172.362 65.8861 173.064 66.3004C173.77 66.7147 174.327 67.313 174.735 68.0952C175.146 68.8741 175.351 69.812 175.351 70.9091ZM173.497 70.9091C173.497 70.1368 173.376 69.4856 173.134 68.9553C172.895 68.4216 172.564 68.0189 172.14 67.7472C171.715 67.4721 171.227 67.3345 170.673 67.3345C170.12 67.3345 169.631 67.4721 169.206 67.7472C168.782 68.0189 168.449 68.4216 168.207 68.9553C167.968 69.4856 167.849 70.1368 167.849 70.9091C167.849 71.6813 167.968 72.3343 168.207 72.8679C168.449 73.3982 168.782 73.8009 169.206 74.076C169.631 74.3478 170.12 74.4837 170.673 74.4837C171.227 74.4837 171.715 74.3478 172.14 74.076C172.564 73.8009 172.895 73.3982 173.134 72.8679C173.376 72.3343 173.497 71.6813 173.497 70.9091ZM183.513 65.8182H185.358V72.4702C185.358 73.1993 185.186 73.8407 184.841 74.3942C184.499 74.9477 184.019 75.3802 183.399 75.6918C182.779 76 182.055 76.1541 181.226 76.1541C180.395 76.1541 179.669 76 179.049 75.6918C178.429 75.3802 177.949 74.9477 177.607 74.3942C177.266 73.8407 177.095 73.1993 177.095 72.4702V65.8182H178.94V72.3161C178.94 72.7403 179.032 73.1181 179.218 73.4496C179.407 73.781 179.672 74.0412 180.013 74.2301C180.355 74.4157 180.759 74.5085 181.226 74.5085C181.694 74.5085 182.098 74.4157 182.44 74.2301C182.784 74.0412 183.049 73.781 183.235 73.4496C183.421 73.1181 183.513 72.7403 183.513 72.3161V65.8182ZM187.363 76V65.8182H191.181C191.963 65.8182 192.619 65.964 193.15 66.2557C193.683 66.5473 194.086 66.9484 194.358 67.4588C194.633 67.9659 194.77 68.5426 194.77 69.1889C194.77 69.8419 194.633 70.4219 194.358 70.929C194.083 71.4361 193.677 71.8355 193.14 72.1271C192.603 72.4155 191.941 72.5597 191.156 72.5597H188.625V71.0433H190.907C191.365 71.0433 191.739 70.9638 192.031 70.8047C192.323 70.6456 192.538 70.4268 192.677 70.1484C192.82 69.87 192.891 69.5502 192.891 69.1889C192.891 68.8277 192.82 68.5095 192.677 68.2344C192.538 67.9593 192.321 67.7455 192.026 67.593C191.734 67.4373 191.358 67.3594 190.897 67.3594H189.207V76H187.363Z" fill="#F5F5F5"/>
</g>
<g filter="url(#filter1_d_2_14)">
<path d="M53.8821 58.7657C51.8196 58.7657 50.0469 58.3439 48.5639 57.5001C47.0895 56.6478 45.9517 55.4632 45.1506 53.9461C44.358 52.4206 43.9616 50.6521 43.9616 48.6407C43.9616 46.6209 44.358 44.8524 45.1506 43.3353C45.9517 41.8098 47.0895 40.6251 48.5639 39.7814C50.0469 38.9291 51.8196 38.503 53.8821 38.503C55.9446 38.503 57.7131 38.9291 59.1875 39.7814C60.6705 40.6251 61.8082 41.8098 62.6009 43.3353C63.402 44.8524 63.8026 46.6209 63.8026 48.6407C63.8026 50.6521 63.402 52.4206 62.6009 53.9461C61.8082 55.4632 60.6705 56.6478 59.1875 57.5001C57.7131 58.3439 55.9446 58.7657 53.8821 58.7657ZM53.9205 54.0484C54.6705 54.0484 55.3054 53.8183 55.8253 53.3581C56.3452 52.8978 56.7415 52.2586 57.0142 51.4405C57.2955 50.6223 57.4361 49.6763 57.4361 48.6024C57.4361 47.5115 57.2955 46.5569 57.0142 45.7388C56.7415 44.9206 56.3452 44.2814 55.8253 43.8211C55.3054 43.3609 54.6705 43.1308 53.9205 43.1308C53.1449 43.1308 52.4886 43.3609 51.9517 43.8211C51.4233 44.2814 51.0185 44.9206 50.7372 45.7388C50.4645 46.5569 50.3281 47.5115 50.3281 48.6024C50.3281 49.6763 50.4645 50.6223 50.7372 51.4405C51.0185 52.2586 51.4233 52.8978 51.9517 53.3581C52.4886 53.8183 53.1449 54.0484 53.9205 54.0484ZM73.2564 47.1961V58.395H67.005V38.7586H72.9496V42.3638H73.1669C73.6016 41.162 74.343 40.2203 75.3913 39.5385C76.4396 38.8481 77.6882 38.503 79.1371 38.503C80.5178 38.503 81.7152 38.814 82.7294 39.4362C83.7521 40.0498 84.5447 40.9106 85.1072 42.0186C85.6783 43.118 85.9595 44.4049 85.951 45.8794V58.395H79.6996V47.1067C79.7081 46.0157 79.4311 45.1635 78.8686 44.5498C78.3146 43.9362 77.5433 43.6294 76.5547 43.6294C75.8984 43.6294 75.3189 43.7743 74.8161 44.064C74.3217 44.3453 73.9382 44.7501 73.6655 45.2785C73.4013 45.8069 73.2649 46.4461 73.2564 47.1961ZM100.905 38.7586V43.3609H88.5174V38.7586H100.905ZM91.1126 34.0541H97.364V52.2203C97.364 52.6038 97.4237 52.9149 97.543 53.1535C97.6708 53.3836 97.854 53.5498 98.0927 53.6521C98.3313 53.7459 98.6168 53.7927 98.9492 53.7927C99.1879 53.7927 99.4393 53.7714 99.7035 53.7288C99.9762 53.6777 100.181 53.6351 100.317 53.601L101.263 58.1138C100.965 58.199 100.543 58.3055 99.9975 58.4334C99.4606 58.5612 98.8171 58.6422 98.0671 58.6763C96.6012 58.7444 95.3441 58.574 94.2958 58.1649C93.256 57.7473 92.4592 57.0995 91.9052 56.2217C91.3597 55.3439 91.0955 54.2402 91.1126 52.9106V34.0541ZM104.095 58.395V38.7586H110.346V58.395H104.095ZM107.227 36.4703C106.349 36.4703 105.595 36.1805 104.964 35.601C104.333 35.0129 104.018 34.3055 104.018 33.4788C104.018 32.6606 104.333 31.9618 104.964 31.3822C105.595 30.7942 106.349 30.5001 107.227 30.5001C108.113 30.5001 108.868 30.7942 109.49 31.3822C110.12 31.9618 110.436 32.6606 110.436 33.4788C110.436 34.3055 110.12 35.0129 109.49 35.601C108.868 36.1805 108.113 36.4703 107.227 36.4703ZM120.577 47.1961V58.395H114.325V38.7586H120.27V42.3638H120.487C120.922 41.162 121.663 40.2203 122.712 39.5385C123.76 38.8481 125.009 38.503 126.457 38.503C127.838 38.503 129.036 38.814 130.05 39.4362C131.072 40.0498 131.865 40.9106 132.428 42.0186C132.999 43.118 133.28 44.4049 133.271 45.8794V58.395H127.02V47.1067C127.028 46.0157 126.751 45.1635 126.189 44.5498C125.635 43.9362 124.864 43.6294 123.875 43.6294C123.219 43.6294 122.639 43.7743 122.136 44.064C121.642 44.3453 121.259 44.7501 120.986 45.2785C120.722 45.8069 120.585 46.4461 120.577 47.1961ZM146.321 58.7657C144.267 58.7657 142.494 58.3609 141.002 57.5513C139.52 56.7331 138.377 55.5697 137.576 54.0612C136.784 52.5442 136.387 50.7416 136.387 48.6535C136.387 46.6251 136.788 44.8524 137.589 43.3353C138.39 41.8098 139.52 40.6251 140.977 39.7814C142.434 38.9291 144.152 38.503 146.129 38.503C147.527 38.503 148.805 38.7203 149.964 39.1549C151.123 39.5896 152.125 40.2331 152.968 41.0853C153.812 41.9376 154.468 42.9902 154.937 44.243C155.406 45.4873 155.64 46.9149 155.64 48.5257V50.0853H138.574V46.4547H149.824C149.815 45.7899 149.657 45.1976 149.35 44.6777C149.044 44.1578 148.622 43.753 148.085 43.4632C147.556 43.1649 146.947 43.0157 146.257 43.0157C145.558 43.0157 144.931 43.1734 144.377 43.4888C143.824 43.7956 143.385 44.2174 143.061 44.7544C142.737 45.2828 142.566 45.8836 142.549 46.5569V50.2515C142.549 51.0527 142.707 51.7558 143.022 52.3609C143.338 52.9575 143.785 53.422 144.365 53.7544C144.944 54.0868 145.635 54.253 146.436 54.253C146.99 54.253 147.493 54.1763 147.944 54.0228C148.396 53.8694 148.784 53.6436 149.108 53.3453C149.431 53.047 149.674 52.6805 149.836 52.2459L155.576 52.412C155.338 53.699 154.814 54.8197 154.004 55.7743C153.203 56.7203 152.15 57.4575 150.846 57.9859C149.542 58.5058 148.034 58.7657 146.321 58.7657ZM165.085 47.1961V58.395H158.833V38.7586H164.778V42.3638H164.995C165.43 41.162 166.171 40.2203 167.219 39.5385C168.268 38.8481 169.516 38.503 170.965 38.503C172.346 38.503 173.543 38.814 174.558 39.4362C175.58 40.0498 176.373 40.9106 176.935 42.0186C177.506 43.118 177.788 44.4049 177.779 45.8794V58.395H171.528V47.1067C171.536 46.0157 171.259 45.1635 170.697 44.5498C170.143 43.9362 169.371 43.6294 168.383 43.6294C167.727 43.6294 167.147 43.7743 166.644 44.064C166.15 44.3453 165.766 44.7501 165.494 45.2785C165.229 45.8069 165.093 46.4461 165.085 47.1961ZM192.733 38.7586V43.3609H180.346V38.7586H192.733ZM182.941 34.0541H189.192V52.2203C189.192 52.6038 189.252 52.9149 189.371 53.1535C189.499 53.3836 189.682 53.5498 189.921 53.6521C190.159 53.7459 190.445 53.7927 190.777 53.7927C191.016 53.7927 191.267 53.7714 191.532 53.7288C191.804 53.6777 192.009 53.6351 192.145 53.601L193.091 58.1138C192.793 58.199 192.371 58.3055 191.826 58.4334C191.289 58.5612 190.645 58.6422 189.895 58.6763C188.429 58.7444 187.172 58.574 186.124 58.1649C185.084 57.7473 184.287 57.0995 183.733 56.2217C183.188 55.3439 182.924 54.2402 182.941 52.9106V34.0541ZM201.458 58.7274C200.206 58.7274 199.093 58.5186 198.122 58.101C197.159 57.6748 196.396 57.0356 195.833 56.1834C195.279 55.3226 195.002 54.2444 195.002 52.949C195.002 51.8581 195.194 50.9376 195.578 50.1876C195.961 49.4376 196.49 48.8282 197.163 48.3595C197.836 47.8907 198.612 47.537 199.49 47.2984C200.368 47.0513 201.305 46.8851 202.302 46.7998C203.419 46.6976 204.318 46.591 205 46.4802C205.681 46.3609 206.176 46.1947 206.483 45.9817C206.798 45.7601 206.956 45.449 206.956 45.0484V44.9845C206.956 44.3282 206.73 43.8211 206.278 43.4632C205.826 43.1052 205.217 42.9263 204.45 42.9263C203.623 42.9263 202.958 43.1052 202.456 43.4632C201.953 43.8211 201.633 44.3155 201.497 44.9461L195.731 44.7416C195.902 43.5484 196.341 42.4831 197.048 41.5456C197.764 40.5995 198.744 39.8581 199.988 39.3211C201.241 38.7757 202.745 38.503 204.501 38.503C205.754 38.503 206.909 38.6521 207.966 38.9504C209.022 39.2402 209.943 39.6663 210.727 40.2288C211.511 40.7828 212.116 41.4646 212.542 42.2743C212.977 43.0839 213.194 44.0086 213.194 45.0484V58.395H207.314V55.6592H207.16C206.811 56.324 206.363 56.8865 205.818 57.3467C205.281 57.8069 204.646 58.1521 203.913 58.3822C203.189 58.6123 202.37 58.7274 201.458 58.7274ZM203.389 54.6365C204.062 54.6365 204.667 54.5001 205.204 54.2274C205.75 53.9547 206.184 53.5797 206.508 53.1024C206.832 52.6166 206.994 52.0541 206.994 51.4149V49.5484C206.815 49.6422 206.598 49.7274 206.342 49.8041C206.095 49.8808 205.822 49.9532 205.524 50.0214C205.225 50.0896 204.919 50.1493 204.603 50.2004C204.288 50.2515 203.985 50.2984 203.696 50.341C203.108 50.4348 202.605 50.5797 202.187 50.7757C201.778 50.9717 201.463 51.2274 201.241 51.5427C201.028 51.8495 200.922 52.216 200.922 52.6422C200.922 53.2899 201.152 53.7842 201.612 54.1251C202.081 54.466 202.673 54.6365 203.389 54.6365ZM223.268 32.2132V58.395H217.017V32.2132H223.268Z" fill="#F5F5F5"/>
</g>
<g filter="url(#filter2_d_2_14)">
<path d="M45.7495 90.56C37.6428 90.56 30.6028 88.64 24.6295 84.8C18.7415 80.8747 14.1762 75.6267 10.9335 69.056C7.69083 62.4 6.0695 55.0613 6.0695 47.04C6.0695 40.64 7.0935 34.6667 9.1415 29.12C11.1895 23.488 14.0482 18.5813 17.7175 14.4C21.3868 10.2187 25.6108 6.93333 30.3895 4.544C35.1682 2.15467 40.2882 0.959999 45.7495 0.959999C52.8322 0.959999 58.9335 1.984 64.0535 4.032C69.1735 5.99466 72.8855 8.384 75.1895 11.2C76.8108 13.1627 77.7495 15.8933 78.0055 19.392C78.2615 22.8907 78.3895 26.56 78.3895 30.4H75.8295C74.2082 22.0373 71.1788 15.8933 66.7415 11.968C62.3895 8.04266 56.6722 6.07999 49.5895 6.07999C44.0428 6.07999 38.9228 7.36 34.2295 9.92C29.5362 12.48 25.7815 16.7467 22.9655 22.72C20.2348 28.6933 18.8695 36.8 18.8695 47.04C18.8695 51.8187 19.4242 56.512 20.5335 61.12C21.7282 65.6427 23.5628 69.7387 26.0375 73.408C28.5122 77.0773 31.6695 80.0213 35.5095 82.24C39.4348 84.3733 44.1282 85.44 49.5895 85.44C55.9895 85.44 61.4935 83.904 66.1015 80.832C70.7095 77.76 74.8055 73.3227 78.3895 67.52L80.9495 69.44C76.8535 77.4613 71.8615 83.008 65.9735 86.08C60.0855 89.0667 53.3442 90.56 45.7495 90.56Z" fill="#F5F5F5"/>
</g>
<defs>
<filter id="filter0_d_2_14" x="85.6361" y="65.679" width="113.134" height="18.4751" filterUnits="userSpaceOnUse" color-interpolation-filters="sRGB">
<feFlood flood-opacity="0" result="BackgroundImageFix"/>
<feColorMatrix in="SourceAlpha" type="matrix" values="0 0 0 0 0 0 0 0 0 0 0 0 0 0 0 0 0 0 127 0" result="hardAlpha"/>
<feOffset dy="4"/>
<feGaussianBlur stdDeviation="2"/>
<feComposite in2="hardAlpha" operator="out"/>
<feColorMatrix type="matrix" values="0 0 0 0 0 0 0 0 0 0 0 0 0 0 0 0 0 0 0.25 0"/>
<feBlend mode="normal" in2="BackgroundImageFix" result="effect1_dropShadow_2_14"/>
<feBlend mode="normal" in="SourceGraphic" in2="effect1_dropShadow_2_14" result="shape"/>
</filter>
<filter id="filter1_d_2_14" x="39.9616" y="30.5001" width="187.306" height="36.2784" filterUnits="userSpaceOnUse" color-interpolation-filters="sRGB">
<feFlood flood-opacity="0" result="BackgroundImageFix"/>
<feColorMatrix in="SourceAlpha" type="matrix" values="0 0 0 0 0 0 0 0 0 0 0 0 0 0 0 0 0 0 127 0" result="hardAlpha"/>
<feOffset dy="4"/>
<feGaussianBlur stdDeviation="2"/>
<feComposite in2="hardAlpha" operator="out"/>
<feColorMatrix type="matrix" values="0 0 0 0 0 0 0 0 0 0 0 0 0 0 0 0 0 0 0.25 0"/>
<feBlend mode="normal" in2="BackgroundImageFix" result="effect1_dropShadow_2_14"/>
<feBlend mode="normal" in="SourceGraphic" in2="effect1_dropShadow_2_14" result="shape"/>
</filter>
<filter id="filter2_d_2_14" x="2.06949" y="0.960007" width="82.88" height="97.6" filterUnits="userSpaceOnUse" color-interpolation-filters="sRGB">
<feFlood flood-opacity="0" result="BackgroundImageFix"/>
<feColorMatrix in="SourceAlpha" type="matrix" values="0 0 0 0 0 0 0 0 0 0 0 0 0 0 0 0 0 0 127 0" result="hardAlpha"/>
<feOffset dy="4"/>
<feGaussianBlur stdDeviation="2"/>
<feComposite in2="hardAlpha" operator="out"/>
<feColorMatrix type="matrix" values="0 0 0 0 0 0 0 0 0 0 0 0 0 0 0 0 0 0 0.25 0"/>
<feBlend mode="normal" in2="BackgroundImageFix" result="effect1_dropShadow_2_14"/>
<feBlend mode="normal" in="SourceGraphic" in2="effect1_dropShadow_2_14" result="shape"/>
</filter>
</defs>
</svg>
